# xmcd
#
# Track frame offsets:
#	183
#	17610
#	38738
#	59325
#	85415
#	108255
#
# Disc length: 1759 seconds
#
# Revision: 5
# Processed by: cddbd v1.5.2PL0 Copyright (c) Steve Scherf et al.
# Submitted via: EasyCDDAExtractor 2010.6.0.0
#
DISCID=4106dd06
DTITLE=Gabrielle - Going Nowhere
DYEAR=1993
DGENRE=Pop
TTITLE0=Going Nowhere (7'' Mix)
TTITLE1=Going Nowhere (It's In The Post (Again) Mix)
TTITLE2=Going Nowhere (Assault On Battery Mix)
TTITLE3=Going Nowhere (Law's House Mix)
TTITLE4=Going Nowhere (Portishead Mix)
TTITLE5=Going Nowhere (Red Underground (Again) Mix By The Development Corporat
TTITLE5=ion)
EXTD=rlokker@worldonline.nl
EXTT0=
EXTT1=
EXTT2=
EXTT3=
EXTT4=
EXTT5=
PLAYORDER=
